<?xml version="1.0" standalone="no"?>
<!DOCTYPE svg PUBLIC "-//W3C//DTD SVG 20010904//EN"
 "http://www.w3.org/TR/2001/REC-SVG-20010904/DTD/svg10.dtd">
<svg version="1.0" xmlns="http://www.w3.org/2000/svg"
 width="2510.000000pt" height="2510.000000pt" viewBox="0 0 2510.000000 2510.000000"
 preserveAspectRatio="xMidYMid meet">
<metadata>
Created by potrace 1.11, written by Peter Selinger 2001-2013
</metadata>
<g transform="translate(0.000000,2510.000000) scale(0.100000,-0.100000)"
fill="#000000" stroke="none">
<path d="M13917 19044 c-1 -2 -27 -6 -57 -9 -30 -3 -73 -11 -95 -17 -22 -5
-51 -12 -65 -14 -45 -8 -210 -64 -505 -171 -445 -161 -628 -211 -795 -217 -92
-2 -258 28 -345 64 -106 45 -314 115 -397 135 -220 53 -286 37 -430 -101 -122
-116 -285 -345 -432 -604 -90 -157 -271 -517 -340 -675 -27 -60 -57 -128 -67
-150 -54 -121 -136 -352 -140 -395 -3 -33 3 -35 94 -36 81 -1 212 -8 332 -18
22 -2 74 -7 115 -10 41 -4 86 -8 100 -10 14 -3 52 -7 85 -11 33 -3 75 -8 93
-11 17 -2 47 -6 65 -8 17 -3 52 -7 77 -11 25 -3 59 -8 75 -10 31 -3 150 -22
195 -30 14 -3 45 -7 70 -11 25 -3 52 -7 60 -9 8 -3 32 -7 54 -11 21 -3 48 -8
60 -10 11 -2 59 -11 106 -19 141 -25 144 -26 160 -30 8 -2 31 -7 50 -10 37 -6
344 -69 435 -89 11 -3 63 -14 115 -25 52 -12 133 -30 180 -41 47 -11 116 -27
153 -35 38 -8 114 -27 170 -41 56 -14 109 -27 118 -29 34 -7 188 -49 314 -85
72 -21 139 -40 150 -43 11 -3 67 -20 125 -37 209 -64 516 -144 591 -155 24 -4
46 -8 50 -10 15 -10 146 -20 259 -20 142 0 209 16 273 67 43 34 61 65 72 123
7 41 8 264 1 300 -2 11 -7 56 -11 100 -3 44 -8 89 -10 100 -3 11 -7 36 -9 55
-12 84 -17 118 -26 165 -5 28 -12 66 -16 85 -8 51 -31 171 -38 200 -11 49 -18
80 -17 85 0 2 -5 19 -10 37 -5 18 -12 46 -15 62 -3 16 -16 70 -29 120 -13 50
-33 125 -44 166 -81 309 -214 667 -332 897 -130 251 -254 394 -383 437 -41 14
-180 29 -189 20z"/>
<path d="M9868 16645 c-2 -1 -51 -6 -110 -9 -59 -4 -117 -9 -130 -11 -13 -2
-50 -6 -83 -10 -33 -4 -98 -13 -145 -21 -47 -8 -98 -17 -113 -20 -15 -2 -87
-20 -160 -38 -305 -79 -599 -224 -756 -373 l-56 -53 60 29 c152 74 395 136
640 166 28 3 64 8 81 10 168 23 745 23 919 0 17 -2 62 -7 100 -10 111 -9 280
-40 391 -71 28 -8 60 -16 70 -19 155 -33 746 -254 1029 -385 22 -10 122 -55
222 -99 101 -44 191 -85 200 -90 10 -5 45 -22 78 -37 57 -25 277 -127 375
-172 1049 -486 1725 -739 2270 -851 52 -11 113 -22 135 -25 22 -4 67 -11 100
-16 33 -5 78 -12 100 -15 71 -10 418 -14 470 -5 28 5 66 11 85 15 210 37 509
172 690 312 139 107 311 273 403 389 314 399 424 832 271 1074 -90 144 -227
193 -462 166 -261 -30 -721 -240 -1126 -514 l-99 -67 -1 -172 c-1 -156 -3
-174 -21 -199 -56 -75 -214 -73 -534 7 -139 34 -210 57 -606 194 -586 202
-903 303 -1480 470 -187 54 -657 177 -730 191 -11 2 -99 21 -195 43 -96 22
-188 42 -205 44 -26 5 -81 15 -165 32 -76 15 -269 48 -355 60 -22 4 -51 8 -65
11 -99 16 -341 42 -555 59 -77 6 -532 14 -537 10z"/>
<path d="M7375 13472 c-310 -36 -570 -317 -714 -769 -30 -94 -71 -275 -71
-313 0 -12 -19 -47 -43 -78 -24 -31 -68 -91 -99 -133 l-56 -76 95 -127 c74
-101 95 -136 99 -169 8 -70 45 -251 55 -269 6 -10 7 -18 5 -18 -11 0 58 -179
109 -285 144 -299 327 -473 554 -524 55 -12 208 -12 258 0 21 5 45 11 54 13
44 11 130 54 184 92 188 131 347 389 434 702 16 59 32 123 35 142 3 19 8 44
10 55 2 11 7 41 10 68 5 39 24 72 105 185 l98 138 -54 74 c-30 41 -61 86 -71
100 -9 14 -22 31 -28 37 -30 31 -52 83 -58 133 -14 132 -75 326 -151 487 -133
280 -287 440 -489 508 -73 25 -192 37 -271 27z m134 -357 c79 -40 138 -164
180 -375 23 -111 33 -183 46 -311 l5 -55 -100 -134 c-55 -73 -100 -135 -100
-137 0 -4 50 -73 60 -83 3 -3 38 -50 79 -104 l74 -99 -7 -114 c-16 -275 -61
-484 -127 -588 -36 -57 -49 -69 -102 -94 -106 -51 -203 25 -274 214 -27 71
-47 140 -43 147 1 2 -3 15 -9 30 -6 15 -17 69 -26 120 -9 51 -18 104 -20 118
-4 22 -17 136 -17 150 -1 26 10 46 63 120 33 47 67 94 76 104 8 11 24 34 35
53 l20 33 -78 107 c-42 60 -86 118 -97 130 -18 20 -19 31 -13 107 4 47 9 94
11 105 2 10 7 41 10 68 12 79 42 205 67 274 27 74 87 168 120 188 73 46 117
52 167 26z"/>
<path d="M17486 13463 c-1 -2 -146 -5 -322 -9 -278 -5 -421 -9 -446 -13 -4 -1
-7 -75 -7 -165 l0 -164 56 1 c53 1 58 -1 88 -36 52 -60 58 -101 60 -418 l3
-287 -98 -132 -98 -131 97 -134 98 -133 -1 -294 c-1 -195 -6 -307 -14 -335
-21 -71 -71 -135 -128 -163 l-52 -25 1 -122 0 -121 56 -4 c104 -6 830 -3 837
4 5 6 9 202 5 271 -1 9 -9 17 -18 17 -24 0 -82 36 -111 69 -27 30 -56 91 -73
153 -7 27 -11 128 -11 265 1 192 3 225 18 248 35 54 121 71 190 39 80 -38 175
-214 227 -419 18 -71 110 -367 124 -400 90 -210 300 -314 490 -243 66 24 165
115 200 184 66 129 69 314 8 461 l-16 37 -24 -52 c-34 -74 -85 -141 -118 -159
-74 -38 -129 36 -219 291 -71 204 -135 317 -217 388 l-41 35 53 21 c28 12 117
44 197 71 80 27 153 52 162 56 16 6 12 18 -32 99 l-49 92 14 48 c30 98 35 315
10 436 -3 14 -9 49 -15 78 -5 30 -26 95 -46 145 -90 227 -238 376 -429 433
-48 15 -96 18 -233 19 -96 0 -175 -1 -176 -2z m304 -401 c72 -32 124 -118 145
-242 8 -42 8 -205 1 -240 -38 -187 -93 -287 -199 -361 -29 -20 -73 -43 -98
-51 -52 -18 -192 -19 -209 -2 -8 8 -10 111 -8 355 l3 344 26 56 c14 30 38 67
53 82 26 26 91 61 131 69 35 8 129 1 155 -10z"/>
<path d="M4969 13456 c-2 -2 -27 -6 -55 -10 -346 -41 -624 -457 -699 -1046 -2
-17 -15 -45 -29 -63 -35 -43 -33 -41 -101 -132 -33 -44 -64 -85 -68 -92 -5 -8
28 -60 89 -143 79 -107 98 -139 101 -173 21 -221 89 -460 174 -614 130 -235
271 -366 469 -433 90 -30 268 -36 360 -11 212 57 413 248 524 499 31 70 74
230 81 303 l5 49 -99 50 -99 49 -6 -32 c-3 -18 -8 -43 -11 -57 -10 -51 -47
-155 -77 -214 -149 -295 -414 -383 -598 -197 -93 94 -168 265 -209 476 -34
177 -39 152 67 302 51 74 91 140 89 146 -3 7 -46 68 -97 137 l-92 125 6 53
c10 91 45 249 77 344 82 243 190 363 337 373 164 10 293 -114 375 -363 20 -60
39 -124 42 -143 3 -19 12 -59 19 -89 l13 -55 67 2 c36 0 73 3 80 6 11 5 14 84
13 442 0 239 -3 437 -6 439 -3 2 -46 7 -95 10 -49 4 -92 9 -97 11 -4 3 -26 7
-49 10 -24 3 -46 7 -49 9 -3 2 -37 7 -74 11 -37 3 -78 8 -90 11 -28 5 -283 14
-288 10z"/>
<path d="M10463 13452 l-173 -2 0 -144 c0 -153 1 -156 51 -156 27 0 93 -43
117 -77 61 -86 74 -171 76 -497 l2 -268 -76 -102 -77 -101 38 -50 c22 -28 56
-75 77 -105 l38 -55 -2 -195 c-1 -233 -7 -281 -46 -383 -23 -59 -42 -91 -81
-131 -65 -66 -118 -86 -220 -82 -119 5 -201 52 -256 149 -51 89 -62 152 -68
372 l-5 200 101 140 c115 161 115 127 1 280 -36 50 -74 102 -84 117 -16 24
-17 54 -14 320 3 291 4 293 29 348 32 68 66 103 119 120 22 7 40 18 41 24 1
14 1 212 0 246 l-1 26 -202 -2 c-112 -1 -303 -3 -425 -5 l-223 -2 0 -137 0
-137 36 -1 c72 -3 123 -64 153 -184 15 -58 18 -115 18 -340 l1 -270 -62 -82
c-33 -45 -78 -104 -98 -132 l-38 -51 99 -132 99 -131 0 -133 c2 -250 28 -379
119 -577 54 -116 191 -269 294 -328 156 -88 356 -103 519 -40 151 59 316 221
390 382 23 50 49 122 49 131 0 3 5 31 12 63 7 35 13 153 13 304 l2 246 29 43
c17 24 52 74 78 111 l48 67 -78 108 -79 108 2 315 c1 330 6 376 47 434 22 31
90 66 119 61 22 -5 21 -11 22 167 1 92 -3 149 -9 149 -21 3 -356 4 -522 1z"/>
<path d="M14395 13450 l-80 -5 0 -498 0 -499 88 -65 c49 -36 90 -63 92 -61 2
1 6 45 9 96 21 315 126 588 242 632 44 17 110 9 140 -17 53 -45 61 -97 62
-386 0 -250 -1 -263 -21 -292 -12 -16 -24 -32 -27 -35 -28 -24 -168 -220 -160
-225 5 -3 54 -64 109 -135 l99 -130 0 -298 c1 -260 -2 -304 -17 -350 -23 -68
-67 -122 -120 -147 l-41 -20 0 -121 c0 -89 3 -123 13 -126 6 -2 188 -4 402 -3
281 1 396 4 412 13 20 11 21 18 19 134 -1 67 -6 123 -11 124 -6 1 -23 5 -39 9
-54 12 -100 78 -134 195 -3 8 -7 146 -9 307 l-5 292 97 136 c59 84 93 140 88
148 -4 6 -47 66 -95 131 l-88 120 0 246 c0 272 6 306 60 372 38 46 105 79 144
72 106 -19 171 -165 200 -449 6 -60 19 -233 20 -257 0 -10 2 -18 4 -18 1 0 47
34 102 75 l98 74 -1 483 -2 483 -785 0 c-432 0 -821 -2 -865 -5z"/>
<path d="M13135 13443 c-11 -2 -54 -4 -95 -5 l-75 -3 0 -143 0 -143 40 -10
c22 -6 53 -20 69 -32 28 -20 68 -94 82 -152 4 -16 9 -250 11 -520 l4 -490 -63
95 c-34 52 -111 169 -170 260 -60 91 -113 172 -119 180 -5 8 -48 74 -95 145
-47 72 -147 225 -223 340 -76 116 -177 270 -225 343 l-86 132 -235 0 -235 0 0
-162 0 -163 36 -2 c102 -6 199 -103 239 -242 22 -75 27 -127 27 -307 l1 -171
-106 -143 c-67 -89 -104 -147 -98 -154 38 -49 188 -254 196 -268 7 -12 10
-120 9 -301 -1 -267 -3 -285 -24 -342 -26 -68 -91 -139 -138 -150 l-29 -6 -1
-134 c0 -116 2 -134 16 -137 37 -9 668 0 692 10 l26 10 -1 128 c0 107 -3 129
-15 131 -89 11 -131 37 -164 100 -37 73 -40 109 -42 581 l-2 462 42 -60 c22
-33 84 -126 137 -208 53 -81 158 -241 234 -357 76 -115 219 -334 318 -485 99
-151 184 -277 188 -280 7 -5 181 -5 199 -1 3 0 5 236 5 524 0 287 2 524 5 527
3 3 47 65 98 138 l93 133 -98 134 -98 135 1 277 c1 301 5 334 54 401 32 44 58
62 105 72 l30 6 0 154 0 155 -250 0 c-137 0 -259 -1 -270 -2z"/>
<path d="M19575 13440 l-230 -5 0 -145 c0 -145 0 -145 23 -143 31 4 74 -20
111 -59 26 -28 109 -197 256 -523 15 -33 47 -101 70 -152 l43 -92 -78 -106
-79 -106 92 -63 c51 -34 130 -89 177 -121 l85 -59 -1 -320 c-1 -177 -4 -337
-8 -356 -4 -19 -19 -51 -35 -70 -39 -49 -82 -69 -172 -79 -3 -1 -6 -59 -7
-131 l0 -130 391 -1 c216 0 435 -1 487 -2 l95 -1 3 137 3 137 -25 0 c-75 0
-173 82 -195 163 -8 27 -13 151 -14 347 l-2 305 55 41 c174 129 253 186 266
191 8 3 14 9 14 15 0 5 -33 54 -74 110 l-75 101 138 276 c142 282 192 363 278
445 46 45 135 96 167 96 13 0 16 13 17 68 1 71 1 143 0 205 l-1 38 -362 -7
c-200 -3 -382 -6 -405 -6 -46 0 -45 0 -45 -68 0 -202 1 -218 22 -213 38 10
108 -7 134 -34 49 -48 44 -130 -16 -277 -39 -96 -236 -466 -249 -466 -9 0
-225 450 -272 565 -64 159 -54 221 36 218 23 0 49 -2 57 -4 13 -3 15 17 15
140 l0 144 -230 1 c-126 1 -333 -1 -460 -4z"/>
<path d="M17977 9764 c-1 -1 -110 -5 -242 -9 -339 -11 -508 -19 -640 -30 -27
-2 -90 -7 -140 -10 -49 -4 -110 -8 -135 -10 -25 -2 -79 -6 -120 -10 -41 -3
-95 -8 -120 -10 -25 -3 -79 -7 -120 -11 -41 -3 -93 -7 -115 -9 -22 -3 -69 -7
-105 -10 -36 -3 -78 -8 -95 -10 -16 -2 -66 -7 -110 -11 -44 -3 -87 -8 -96 -9
-9 -2 -52 -6 -95 -10 -43 -4 -87 -9 -96 -10 -9 -2 -49 -7 -89 -10 -40 -4 -80
-8 -88 -10 -9 -2 -45 -6 -81 -9 -36 -4 -76 -9 -90 -11 -14 -2 -54 -7 -90 -10
-36 -4 -76 -8 -90 -10 -21 -4 -117 -16 -330 -41 -25 -3 -56 -7 -70 -9 -14 -2
-43 -6 -65 -9 -22 -3 -76 -10 -120 -16 -44 -6 -96 -13 -115 -16 -19 -2 -66 -8
-105 -14 -38 -5 -90 -12 -115 -15 -25 -4 -56 -8 -70 -10 -14 -2 -45 -7 -70
-10 -25 -4 -58 -8 -75 -11 -16 -2 -122 -17 -235 -34 -280 -40 -282 -40 -310
-45 -14 -3 -43 -7 -65 -11 -54 -7 -74 -10 -190 -29 -55 -9 -113 -18 -130 -21
-42 -5 -91 -13 -155 -24 -30 -5 -73 -11 -95 -14 -22 -3 -49 -7 -60 -10 -28 -5
-95 -16 -130 -20 -16 -2 -57 -9 -90 -15 -33 -6 -76 -13 -95 -16 -19 -3 -60
-10 -90 -15 -30 -5 -71 -11 -90 -14 -19 -3 -46 -8 -59 -10 -13 -3 -49 -8 -80
-12 -31 -3 -59 -8 -63 -10 -3 -2 -30 -7 -60 -10 -29 -3 -56 -8 -59 -10 -4 -2
-27 -6 -50 -9 -24 -3 -82 -13 -129 -21 -47 -9 -101 -18 -120 -20 -19 -3 -55
-9 -80 -14 -25 -5 -65 -12 -90 -16 -58 -8 -73 -11 -145 -23 -33 -6 -77 -13
-99 -17 -21 -3 -46 -7 -55 -9 -9 -1 -36 -6 -61 -10 -25 -4 -54 -9 -65 -11 -11
-3 -36 -6 -55 -9 -19 -3 -46 -7 -60 -10 -14 -3 -41 -8 -60 -11 -19 -2 -57 -9
-85 -14 -27 -5 -66 -11 -85 -14 -19 -3 -73 -12 -120 -20 -47 -8 -107 -18 -135
-21 -27 -4 -65 -10 -84 -15 -19 -5 -36 -8 -36 -7 -1 1 -20 29 -42 62 -187 278
-610 488 -1310 649 -82 19 -161 37 -178 39 -16 3 -52 10 -80 15 -54 11 -122
22 -170 28 -16 1 -79 10 -140 18 -60 8 -139 17 -175 21 -36 3 -81 8 -100 10
-19 2 -69 7 -110 10 -41 3 -95 8 -120 10 -41 4 -218 13 -390 20 -105 5 -625 5
-750 0 -270 -9 -460 -25 -680 -54 -41 -6 -95 -13 -120 -16 -25 -4 -51 -8 -59
-11 -8 -3 -30 -7 -50 -10 -20 -3 -88 -18 -151 -34 -535 -133 -657 -371 -343
-670 89 -85 182 -145 323 -207 114 -50 333 -121 440 -142 30 -6 66 -14 80 -16
78 -17 124 -25 167 -31 26 -3 50 -7 53 -9 3 -2 34 -6 70 -10 36 -4 73 -9 82
-10 9 -2 48 -7 85 -10 37 -4 82 -9 98 -11 17 -2 73 -6 125 -10 52 -3 113 -7
135 -9 283 -29 1259 -23 1610 10 28 2 85 7 127 10 43 3 88 8 100 10 13 3 57 7
98 10 41 4 82 8 90 10 8 2 47 7 85 11 39 3 77 8 85 9 9 2 43 6 75 10 33 4 71
8 85 10 53 8 107 15 150 20 25 3 73 10 108 15 34 6 84 13 110 16 26 3 54 7 62
9 8 2 35 7 60 10 54 7 117 16 145 21 11 2 42 6 70 10 27 3 52 7 55 9 3 2 35 6
70 10 l66 7 3 -34 c10 -86 3 -164 -19 -211 -39 -82 -128 -161 -257 -226 -65
-33 -253 -104 -253 -95 0 2 -8 1 -17 -5 -10 -5 -70 -20 -133 -35 -113 -25
-135 -29 -214 -41 -21 -4 -47 -8 -58 -10 -11 -3 -46 -7 -77 -10 -31 -4 -63 -8
-71 -10 -8 -2 -46 -7 -85 -11 -38 -3 -83 -8 -100 -10 -16 -2 -74 -6 -130 -10
-55 -3 -116 -8 -135 -10 -267 -24 -1199 -24 -1675 1 -44 3 -129 7 -190 10
-155 8 -389 22 -505 31 -36 2 -94 6 -130 9 -36 2 -90 6 -120 9 -30 3 -86 8
-125 11 -38 3 -86 8 -105 10 -19 2 -62 7 -95 10 -33 4 -73 8 -90 10 -16 2 -57
7 -90 10 -33 4 -72 9 -87 11 -15 2 -47 6 -70 9 -42 4 -247 32 -298 40 -60 10
-158 25 -195 30 -22 3 -62 10 -90 15 -27 5 -63 11 -80 14 -30 5 -115 20 -170
30 -31 6 -274 54 -310 62 -11 2 -29 6 -40 8 -11 3 -63 14 -115 25 -52 11 -169
39 -260 62 -91 22 -190 47 -221 54 -731 181 -1686 545 -2211 844 -60 34 -110
61 -113 61 -52 0 255 -184 563 -338 650 -324 1484 -619 2252 -797 331 -77 689
-149 894 -181 21 -3 48 -8 60 -10 68 -13 551 -80 641 -89 28 -2 66 -6 85 -9
19 -3 62 -8 95 -11 33 -3 78 -8 100 -10 144 -15 353 -32 485 -40 80 -5 216
-14 290 -20 30 -2 111 -7 180 -10 69 -3 152 -7 185 -10 353 -21 1266 -21 1500
0 22 2 85 7 140 10 55 4 114 8 130 10 17 2 57 6 90 10 93 9 145 15 205 25 30
5 75 12 100 15 25 3 99 17 165 30 511 103 813 279 882 514 17 60 20 184 4 238
-10 35 -9 36 84 48 22 3 63 10 90 15 28 5 68 12 90 15 41 4 211 31 251 39 12
2 45 7 75 11 30 3 61 8 69 10 8 2 31 7 50 10 19 3 46 7 60 10 14 2 43 7 65 10
23 3 50 7 60 9 11 2 56 9 100 16 44 7 89 14 100 16 10 2 37 6 60 9 49 7 84 13
155 25 51 8 79 13 170 26 19 3 60 9 90 14 100 17 115 19 155 25 22 2 51 7 65
9 29 6 138 23 195 31 22 3 51 8 65 10 14 3 43 7 65 10 22 4 65 10 95 15 30 5
73 12 95 15 22 4 47 8 55 10 8 2 42 7 75 11 33 3 62 8 65 9 3 2 29 6 59 10 30
4 62 8 72 10 19 4 85 14 134 20 17 2 46 6 65 9 51 9 427 64 480 71 25 3 56 8
70 10 14 2 45 7 70 10 25 3 52 8 60 10 8 2 40 6 71 10 31 3 65 7 75 9 20 4 81
12 162 22 26 3 54 7 62 9 8 2 42 7 75 10 33 4 67 8 75 10 8 2 38 6 65 10 28 3
66 8 85 11 19 2 51 6 70 9 75 9 126 16 150 20 14 2 50 7 80 10 30 3 66 8 80
10 14 2 50 6 80 10 30 4 66 8 80 10 14 2 50 6 80 9 30 3 64 8 75 10 11 2 52 7
90 11 39 4 78 9 87 10 10 2 50 6 90 10 40 3 80 8 88 10 8 2 44 7 80 10 36 4
76 8 90 10 14 2 54 6 90 10 36 3 83 8 105 10 22 3 63 7 90 10 28 3 68 8 90 10
44 6 130 14 213 20 29 2 70 6 90 9 51 7 188 19 347 31 44 3 94 8 110 10 26 3
94 8 270 20 61 4 231 14 340 20 493 26 1400 26 1760 -1 33 -2 105 -6 160 -9
55 -2 125 -7 155 -9 30 -3 96 -8 145 -11 50 -3 104 -8 120 -10 17 -2 70 -7
119 -11 50 -3 97 -7 105 -9 9 -1 52 -6 96 -10 81 -6 102 -9 185 -20 25 -3 68
-8 95 -10 28 -3 64 -7 80 -9 17 -3 53 -8 80 -11 28 -4 61 -9 75 -11 14 -2 49
-6 78 -10 29 -3 63 -7 75 -10 12 -2 42 -7 67 -10 25 -3 52 -7 60 -9 13 -2 36
-6 135 -21 199 -31 610 -109 860 -163 150 -32 408 -91 440 -101 31 -9 144 -39
173 -45 33 -7 250 -69 427 -121 123 -36 527 -171 582 -195 49 -21 84 -26 67
-9 -36 36 -656 261 -999 362 -148 44 -407 118 -430 122 -11 3 -56 14 -100 26
-127 35 -427 102 -795 180 -58 12 -305 58 -350 65 -19 3 -57 10 -85 15 -27 5
-70 12 -95 15 -25 3 -52 8 -60 10 -8 2 -35 6 -60 9 -25 3 -56 8 -70 11 -14 3
-43 7 -65 9 -22 3 -71 9 -110 15 -38 5 -92 13 -120 16 -27 4 -61 8 -75 10 -14
2 -50 6 -80 10 -30 3 -66 8 -80 10 -14 3 -74 9 -135 15 -60 6 -128 13 -150 15
-22 2 -71 7 -110 10 -38 4 -88 8 -110 10 -22 2 -76 6 -120 10 -44 3 -105 8
-135 10 -50 5 -97 7 -345 20 -248 13 -1088 27 -1098 19z m-10277 -138 c30 -3
106 -8 168 -11 62 -3 121 -8 132 -10 10 -2 54 -6 97 -10 43 -3 89 -8 103 -10
14 -2 54 -6 90 -10 36 -3 72 -8 80 -10 8 -2 40 -6 70 -9 51 -6 67 -8 138 -21
23 -4 63 -11 237 -41 17 -3 127 -30 245 -60 551 -140 937 -317 1133 -520 47
-49 102 -123 95 -128 -1 -2 -39 -9 -83 -16 -44 -7 -91 -14 -105 -16 -14 -3
-50 -9 -80 -14 -30 -5 -75 -12 -100 -15 -25 -3 -56 -8 -70 -10 -39 -7 -104
-17 -190 -30 -55 -8 -91 -14 -127 -19 -16 -3 -48 -8 -73 -11 -48 -7 -72 -10
-135 -19 -22 -4 -60 -9 -85 -11 -25 -3 -56 -7 -70 -10 -14 -2 -50 -7 -80 -10
-30 -4 -62 -9 -70 -10 -8 -2 -49 -6 -90 -10 -41 -4 -82 -8 -90 -10 -8 -1 -51
-6 -95 -10 -44 -4 -93 -9 -110 -11 -16 -2 -73 -6 -125 -9 -52 -3 -115 -8 -140
-10 -298 -27 -1306 -26 -1540 0 -19 3 -64 7 -100 10 -36 2 -81 7 -100 10 -19
2 -59 7 -89 11 -30 3 -61 7 -70 9 -9 1 -36 6 -61 10 -85 13 -95 15 -145 24
-377 73 -662 201 -814 367 -173 190 -147 325 85 438 101 49 291 107 424 130
19 3 46 8 60 11 13 3 40 7 60 10 20 3 45 7 55 9 11 2 47 7 80 11 32 4 66 8 75
10 13 2 86 9 230 21 25 2 101 7 170 10 69 4 127 8 129 10 5 4 817 -4 881 -10z"/>
<path d="M20250 7914 l0 -504 23 -1 c12 0 118 0 235 0 266 1 300 5 398 53 103
50 197 155 235 263 108 306 -52 612 -357 681 -16 3 -143 8 -281 9 l-253 4 0
-505z m511 248 c98 -43 146 -115 156 -231 9 -114 -44 -213 -140 -263 -34 -17
-64 -22 -157 -26 l-115 -4 0 263 c0 145 4 269 7 275 13 20 198 9 249 -14z"/>
<path d="M21552 7914 l0 -504 47 -1 c25 0 79 -1 119 -2 l72 -2 1 45 c0 25 1
143 1 264 0 177 2 216 13 205 11 -12 113 -158 214 -307 29 -42 41 -52 61 -50
25 3 36 17 204 263 38 55 72 103 75 107 3 4 6 -112 6 -257 0 -246 1 -265 17
-266 10 0 36 -1 58 -1 22 0 68 1 103 1 l62 1 0 500 c0 275 -2 501 -5 502 -3 0
-46 2 -95 3 l-91 2 -74 -109 c-192 -278 -252 -363 -258 -365 -4 -1 -82 105
-173 235 l-166 237 -95 1 -96 1 0 -503z"/>
<path d="M23039 8416 c-1 0 -2 -227 -3 -503 l-1 -503 40 -1 c49 0 512 0 575 0
l46 1 -1 115 0 115 -202 0 -203 0 0 389 0 388 -125 0 c-69 0 -126 0 -126 -1z"/>
<path d="M19063 6739 c-1 -66 -3 -122 -5 -125 -3 -2 -20 3 -38 12 -41 21 -110
25 -158 11 -21 -7 -58 -32 -83 -57 -95 -95 -90 -246 12 -334 21 -18 54 -37 74
-43 49 -15 130 -8 170 15 29 17 32 18 31 3 -1 -12 9 -16 42 -17 41 -2 42 -1
43 30 0 39 0 597 0 614 -1 7 -17 12 -44 12 l-43 0 -1 -121z m-57 -195 c18 -9
39 -22 45 -30 17 -21 16 -169 -1 -189 -38 -46 -123 -58 -177 -25 -66 40 -87
114 -53 185 33 69 112 94 186 59z"/>
<path d="M21312 6531 l0 -329 44 0 c38 0 44 3 45 21 0 12 1 159 2 327 l0 305
-45 3 -45 3 -1 -330z"/>
<path d="M21554 6533 l1 -328 43 -1 c30 -1 42 2 43 12 0 8 1 151 1 319 0 168
-1 310 -1 315 -1 6 -21 10 -45 10 l-44 0 2 -327z"/>
<path d="M10865 6528 l0 -323 140 0 c172 1 202 5 261 40 78 46 137 126 152
207 33 179 -57 334 -224 386 -17 6 -98 11 -180 11 l-149 2 0 -323z m311 217
c188 -56 207 -335 29 -427 -31 -16 -64 -22 -142 -25 l-103 -3 0 235 0 235 83
0 c46 0 106 -7 133 -15z"/>
<path d="M14924 6528 l1 -323 46 -2 47 -2 0 197 c0 108 1 208 1 221 1 19 18
-1 75 -85 120 -177 136 -196 150 -185 6 6 54 73 106 151 52 77 97 140 100 140
3 0 5 -98 5 -218 l0 -217 45 0 45 0 0 323 0 322 -35 0 c-34 0 -38 -5 -125
-136 -49 -74 -94 -142 -100 -151 -5 -9 -14 -22 -18 -27 -4 -6 -13 -19 -20 -28
-10 -15 -24 0 -107 124 -151 225 -145 218 -184 218 l-34 0 2 -322z"/>
<path d="M16666 6834 c-33 -32 -8 -104 36 -104 25 0 67 38 63 58 -2 9 -4 20
-4 24 -2 16 -34 38 -56 38 -13 0 -31 -7 -39 -16z"/>
<path d="M20049 6808 c-1 -49 -1 -552 0 -584 1 -21 4 -22 192 -22 l190 0 -3
45 -3 45 -141 0 -142 1 0 266 c0 146 -1 272 -1 279 -1 8 -17 12 -46 12 l-45 0
-1 -42z"/>
<path d="M21077 6832 c-21 -23 -22 -51 -2 -79 18 -26 72 -24 92 4 14 18 10 57
-8 79 -16 20 -63 17 -82 -4z"/>
<path d="M21982 6836 c-12 -15 -52 -112 -52 -125 0 -12 40 -11 57 2 13 10 95
126 91 128 -17 7 -90 3 -96 -5z"/>
<path d="M22750 6805 l0 -44 119 -3 120 -3 -74 -80 c-61 -66 -74 -86 -75 -114
0 -28 3 -32 18 -26 131 51 244 -59 186 -181 -40 -83 -169 -93 -231 -17 l-21
26 -33 -19 c-18 -11 -34 -24 -36 -31 -8 -24 74 -92 133 -109 182 -53 338 94
292 276 -13 49 -71 118 -115 136 -18 8 -33 16 -33 18 0 3 15 20 33 39 93 100
103 113 105 145 l2 32 -195 0 -195 0 0 -45z"/>
<path d="M23309 6833 c0 -10 -2 -25 -3 -33 -2 -8 -6 -42 -10 -75 -12 -98 -14
-118 -21 -167 l-6 -48 34 0 c19 0 48 7 65 16 49 24 83 26 127 10 78 -30 104
-131 51 -200 -47 -62 -129 -68 -196 -16 l-35 27 -39 -24 -38 -25 28 -30 c91
-97 254 -99 342 -4 98 106 75 278 -46 345 -44 24 -114 32 -163 18 -26 -7 -27
-6 -23 31 3 20 7 52 10 70 l5 32 124 0 124 0 -1 45 -1 45 -163 0 c-149 0 -164
-2 -165 -17z"/>
<path d="M14349 6771 c-1 -3 0 -34 1 -68 l1 -63 -40 -1 c-23 -1 -46 -2 -53 -3
-7 0 -13 -17 -13 -38 -1 -41 -2 -40 67 -40 l37 0 0 -138 c-1 -157 4 -171 71
-209 43 -24 90 -24 142 0 l26 11 -20 33 c-17 29 -22 32 -46 26 -29 -9 -66 0
-77 19 -9 15 -9 235 0 250 4 7 27 10 56 7 55 -4 65 4 65 48 -1 30 -2 30 -58
30 -32 1 -60 4 -63 7 -3 3 -7 34 -8 69 l-3 64 -42 1 c-23 1 -43 -1 -43 -5z"/>
<path d="M11685 6642 c-62 -11 -132 -69 -159 -132 -19 -46 -15 -155 6 -195 22
-42 62 -80 106 -101 48 -24 150 -24 186 -1 30 20 47 22 44 5 -2 -8 12 -13 40
-14 39 -1 42 0 43 25 1 27 1 320 0 379 -1 33 -1 33 -43 30 -33 -3 -43 -8 -42
-21 1 -9 -2 -17 -7 -17 -5 0 -9 4 -9 9 0 5 -22 17 -48 25 -45 15 -68 17 -117
8z m144 -111 c31 -22 31 -23 31 -111 0 -88 0 -89 -31 -111 -105 -75 -244 9
-224 136 16 102 136 148 224 86z"/>
<path d="M12256 6639 c-15 -4 -36 -15 -46 -24 -16 -15 -18 -14 -23 5 -5 18
-12 21 -44 18 l-38 -3 -3 -216 -2 -216 45 -1 45 -2 0 147 c0 82 4 153 8 159
15 23 78 54 110 54 45 0 91 -28 107 -66 8 -19 13 -76 13 -150 1 -65 1 -124 1
-130 1 -5 21 -11 45 -13 l43 -2 -1 148 c-2 156 -10 194 -55 240 -48 50 -135
72 -205 52z"/>
<path d="M12727 6636 c-45 -17 -86 -58 -88 -89 -7 -89 22 -128 111 -153 80
-23 120 -44 120 -63 -1 -56 -84 -75 -162 -37 l-45 22 -22 -31 c-20 -28 -20
-31 -4 -44 52 -40 148 -58 212 -41 23 6 57 26 77 47 34 34 36 39 31 86 -6 66
-39 97 -135 126 -88 26 -109 44 -89 75 24 35 62 43 115 23 l47 -17 23 26 c12
14 20 30 17 35 -23 37 -147 58 -208 35z"/>
<path d="M13163 6625 c-63 -29 -100 -77 -115 -146 -37 -180 96 -317 270 -278
44 10 122 55 122 71 0 5 -11 20 -25 33 l-24 25 -37 -25 c-20 -14 -42 -25 -48
-26 -6 -1 -24 -2 -41 -4 -38 -4 -97 29 -118 65 -35 59 -33 59 151 62 l167 3
-3 30 c-10 90 -51 158 -116 192 -50 26 -125 25 -183 -2z m175 -101 c19 -19 32
-38 29 -40 -9 -10 -221 -7 -224 3 -6 17 37 63 70 72 50 15 89 5 125 -35z"/>
<path d="M13955 6645 c-5 -2 -22 -6 -37 -9 -37 -8 -95 -60 -118 -107 -48 -93
-23 -225 55 -291 75 -64 225 -56 303 15 l22 21 -26 27 -27 28 -29 -21 c-88
-62 -201 -32 -228 60 l-9 32 171 0 170 0 -7 46 c-12 92 -57 158 -125 186 -34
14 -95 21 -115 13z m95 -95 c23 -12 55 -58 47 -66 -7 -7 -215 -9 -222 -3 -8 9
26 50 58 70 33 19 79 19 117 -1z"/>
<path d="M16328 6641 c-43 -14 -85 -49 -95 -78 -8 -25 -9 -38 -4 -87 2 -30 55
-66 125 -87 81 -24 111 -47 102 -77 -15 -45 -104 -52 -169 -14 -28 17 -29 16
-53 -12 -30 -34 -22 -47 44 -73 60 -23 155 -22 200 1 49 25 74 71 69 126 -6
59 -43 91 -135 119 -84 25 -107 43 -91 72 20 39 86 47 139 19 21 -11 26 -10
47 14 13 15 21 32 18 37 -21 32 -143 57 -197 40z"/>
<path d="M17019 6637 c-186 -69 -204 -333 -29 -420 57 -29 137 -30 190 -4 18
9 34 17 35 17 2 0 2 -55 2 -122 l-1 -123 47 -3 47 -3 0 330 0 329 -45 0 c-25
0 -43 -3 -40 -8 10 -17 -13 -20 -41 -5 -44 21 -124 27 -165 12z m133 -87 c55
-23 63 -36 65 -117 2 -94 -6 -116 -50 -136 -98 -47 -207 18 -207 123 0 97 103
167 192 130z"/>
<path d="M18115 6634 c-150 -54 -188 -282 -64 -387 49 -42 94 -56 168 -52 59
4 118 31 150 68 11 14 9 20 -15 40 l-28 25 -39 -26 c-50 -34 -120 -35 -164 -4
-31 22 -66 80 -57 94 3 4 80 8 171 8 l166 0 -6 51 c-8 65 -47 132 -96 165 -47
30 -128 38 -186 18z m133 -83 c25 -13 58 -59 49 -67 -5 -5 -75 -7 -186 -5 -43
1 -43 1 -29 24 39 59 108 79 166 48z"/>
<path d="M19385 6620 c-70 -35 -104 -90 -112 -178 -5 -56 -2 -76 17 -120 57
-132 227 -171 350 -80 36 26 37 35 9 64 l-21 22 -53 -28 c-83 -44 -158 -28
-199 42 -35 57 -32 58 152 58 l169 0 -8 53 c-12 92 -49 144 -126 179 -55 24
-114 21 -178 -12z m184 -96 c19 -21 29 -39 23 -43 -12 -7 -211 -5 -219 3 -11
10 28 58 60 72 49 22 96 11 136 -32z"/>
<path d="M20637 6637 c-183 -59 -205 -330 -34 -419 53 -28 147 -30 196 -5 29
15 35 15 45 2 6 -8 25 -13 46 -12 l35 2 0 215 0 215 -42 3 c-34 2 -43 0 -43
-12 0 -20 -4 -20 -42 0 -41 21 -114 26 -161 11z m142 -91 c47 -25 56 -43 57
-120 1 -83 -6 -100 -49 -126 -92 -57 -210 11 -210 120 0 104 110 173 202 126z"/>
<path d="M21919 6641 c-106 -33 -160 -114 -155 -232 2 -55 8 -77 32 -116 50
-81 148 -118 245 -93 47 12 119 54 119 70 0 18 -49 65 -57 54 -14 -20 -74 -45
-112 -47 -69 -2 -121 35 -137 97 l-6 26 166 0 c165 0 166 0 167 23 2 42 -2 62
-26 112 -43 88 -144 133 -236 106z m139 -116 c18 -20 31 -39 28 -42 -10 -10
-226 -8 -226 2 1 17 34 55 60 69 14 7 43 12 64 11 32 -2 47 -10 74 -40z"/>
<path d="M15691 6490 c1 -191 23 -244 119 -284 43 -18 132 -13 165 8 30 20 35
20 35 2 0 -10 12 -13 43 -12 l42 1 3 216 2 216 -45 1 -45 1 0 -152 0 -153 -42
-27 c-57 -37 -107 -36 -150 2 l-33 29 -2 144 c-1 78 -2 147 -3 151 0 4 -20 7
-45 6 l-46 -3 2 -146z"/>
<path d="M16660 6421 l0 -218 45 -1 45 -2 0 219 0 218 -45 1 -45 1 0 -218z"/>
<path d="M17450 6503 c0 -163 10 -205 59 -254 58 -59 147 -72 224 -34 26 13
32 13 39 2 4 -8 25 -14 48 -15 l40 -2 0 219 0 218 -45 1 -45 1 0 -147 c0 -81
-4 -152 -8 -158 -15 -23 -78 -54 -110 -54 -45 0 -89 27 -102 63 -5 17 -10 89
-10 162 l0 132 -45 1 -45 2 0 -137z"/>
<path d="M21079 6638 c-1 -2 -2 -97 -3 -213 -1 -136 2 -213 9 -217 13 -10 75
-10 76 0 1 4 2 102 3 218 l2 210 -43 3 c-24 1 -44 1 -44 -1z"/>
</g>
</svg>
